HIERARCHY
ROOT Hips
{
	OFFSET -3.958830 18.904000 13.208200
	CHANNELS 6 Xposition Yposition Zposition Zrotation Yrotation Xrotation 
	JOINT LHipJoint
	{
		OFFSET 0.000000 0.000000 0.000000
		CHANNELS 3 Zrotation Yrotation Xrotation
		JOINT LeftUpLeg
		{
			OFFSET 1.800000 -1.400000 0.085000
			CHANNELS 3 Zrotation Yrotation Xrotation
			JOINT LeftLeg
			{
				OFFSET 2.215000 -6.000000 0.000000
				CHANNELS 3 Zrotation Yrotation Xrotation
				JOINT LeftFoot
				{
					OFFSET 2.500000 -6.900000 0.000000
					CHANNELS 3 Zrotation Yrotation Xrotation
					JOINT LeftToeBase
					{
						OFFSET 0.200000 -0.500000 1.950000
						CHANNELS 3 Zrotation Yrotation Xrotation
						End Site
						{
							OFFSET 0.000000 0.000000 0.000000
						}
					}
				}
			}
		}
	}
	JOINT RHipJoint
	{
		OFFSET 0.000000 0.000000 0.000000
		CHANNELS 3 Zrotation Yrotation Xrotation
		JOINT RightUpLeg
		{
			OFFSET -1.800000 -1.400000 0.085000
			CHANNELS 3 Zrotation Yrotation Xrotation
			JOINT RightLeg
			{
				OFFSET -2.215000 -6.000000 0.000000
				CHANNELS 3 Zrotation Yrotation Xrotation
				JOINT RightFoot
				{
					OFFSET -2.500000 -6.900000 0.000000
					CHANNELS 3 Zrotation Yrotation Xrotation
					JOINT RightToeBase
					{
						OFFSET -0.200000 -0.500000 1.950000
						CHANNELS 3 Zrotation Yrotation Xrotation
						End Site
						{
							OFFSET 0.000000 0.000000 0.000000
						}
					}
				}
			}
		}
	}
	JOINT LowerBack
	{
		OFFSET 0.000000 0.000000 0.000000
		CHANNELS 3 Zrotation Yrotation Xrotation
		JOINT Spine
		{
			OFFSET -0.087000 1.940000 -0.288900
			CHANNELS 3 Zrotation Yrotation Xrotation
			JOINT Spine1
			{
				OFFSET 0.000000 1.950000 0.060000
				CHANNELS 3 Zrotation Yrotation Xrotation
				JOINT Neck
				{
					OFFSET 0.000000 0.000000 0.000000
					CHANNELS 3 Zrotation Yrotation Xrotation
					JOINT Neck1
					{
						OFFSET 0.000000 1.600000 0.340000
						CHANNELS 3 Zrotation Yrotation Xrotation
						JOINT Head
						{
							OFFSET 0.000000 1.667000 -0.240000
							CHANNELS 3 Zrotation Yrotation Xrotation
							End Site
							{
								OFFSET 0.000000 0.000000 0.000000
							}
						}
					}
				}
				JOINT LeftShoulder
				{
					OFFSET 0.000000 0.000000 0.000000
					CHANNELS 3 Zrotation Yrotation Xrotation
					JOINT LeftArm
					{
						OFFSET 2.700000 1.550000 -0.730000
						CHANNELS 3 Zrotation Yrotation Xrotation
						JOINT LeftForeArm
						{
							OFFSET 5.450000 0.000000 0.000000
							CHANNELS 3 Zrotation Yrotation Xrotation
							JOINT LeftHand
							{
								OFFSET 3.450000 0.000000 0.000000
								CHANNELS 3 Zrotation Yrotation Xrotation
								JOINT LeftHandIndex1
								{
									OFFSET 0.750000 0.000000 0.000000
									CHANNELS 3 Zrotation Yrotation Xrotation
									End Site
									{
										OFFSET 0.000000 0.000000 0.000000
									}
								}
							}
						}
					}
				}
				JOINT RightShoulder
				{
					OFFSET 0.000000 0.000000 0.000000
					CHANNELS 3 Zrotation Yrotation Xrotation
					JOINT RightArm
					{
						OFFSET -2.700000 1.550000 -0.730000
						CHANNELS 3 Zrotation Yrotation Xrotation
						JOINT RightForeArm
						{
							OFFSET -5.450000 0.000000 0.000000
							CHANNELS 3 Zrotation Yrotation Xrotation
							JOINT RightHand
							{
								OFFSET -3.450000 0.000000 0.000000
								CHANNELS 3 Zrotation Yrotation Xrotation
								JOINT RightHandIndex1
								{
									OFFSET -0.750000 0.000000 0.000000
									CHANNELS 3 Zrotation Yrotation Xrotation
									End Site
									{
										OFFSET 0.000000 0.000000 0.000000
									}
								}
							}
						}
					}
				}
			}
		}
	}
}
MOTION
Frames: 11
Frame Time: 0.016667
-0.595690 16.724440 -1.420980 -12.900169 23.077667 -19.334983 -15.294905 12.467447 3.153606 21.762311 9.373939 -37.503678 16.683421 7.731301 49.862907 0.296458 9.630443 1.070937 -0.297590 -0.450100 -0.526760 18.298925 -11.481045 2.032308 -17.423315 5.229360 10.129753 10.255269 -11.517166 34.933128 -0.948269 -7.892792 1.543777 -0.131560 0.827730 0.155670 -3.978050 0.815584 -7.920702 -11.651351 5.460452 29.905368 -24.457909 11.715561 14.938442 9.430766 -13.890896 -15.506733 -28.903610 14.189085 36.280218 10.507260 -6.501210 -10.876820 -6.452148 -5.980062 2.593093 -56.324018 -11.629131 -12.031929 -103.666104 -64.084054 55.635134 -3.920028 3.216285 0.542950 0.091430 -0.137230 0.114480 -11.488525 25.289663 9.806100 10.455125 15.848534 -21.733091 -61.561500 59.142098 -38.135133 1.663722 -0.741784 -0.453070 0.636310 0.570580 0.196700 
-0.564820 16.694680 -1.392920 -12.677209 24.514276 -19.164763 -15.234096 12.369620 3.069192 20.210091 8.633539 -38.016873 18.071574 6.822075 50.237864 0.372554 9.431452 1.111902 -0.258090 -0.414550 -0.461960 18.315156 -11.690900 2.178963 -17.590875 4.740057 10.588254 11.338997 -11.870207 33.522530 -0.994442 -7.894665 1.530570 -0.167140 0.680270 0.159100 -4.184403 1.443671 -8.029037 -10.580954 6.633086 31.539648 -24.090942 12.354837 13.224665 9.422328 -12.638018 -15.262142 -26.126155 12.834824 39.894050 9.650130 -6.357220 -9.409260 -7.534317 -5.129556 2.164968 -53.946553 -10.393213 -11.111091 -103.535692 -60.608362 53.582071 -3.758946 3.380676 0.540240 0.027140 -0.082280 0.098250 -10.578177 23.529220 10.107085 16.568799 12.301961 -22.865398 -72.161937 75.100241 -55.990755 1.175465 0.980637 -0.374090 0.501940 0.499770 0.167420 
-0.532520 16.655030 -1.397420 -11.558456 25.901309 -19.848200 -15.164475 12.458716 2.882541 18.319430 7.485994 -37.235296 18.823552 5.928665 50.958401 0.421455 9.307599 1.077685 -0.209200 -0.445290 -0.346240 18.318031 -11.873831 2.302978 -18.255563 4.535594 11.519989 12.269592 -12.487609 33.341149 -1.115749 -8.003611 1.407193 -0.257910 0.513360 0.274530 -4.406951 1.731684 -7.998238 -10.731183 8.016576 34.062208 -22.378688 14.029239 14.210698 8.152147 -10.190084 -17.354746 -21.774553 11.202490 44.163982 12.702880 -6.496010 -10.051600 -7.525931 -7.599701 3.342866 -53.086735 -7.493978 -13.786354 -109.909753 -62.052284 59.509017 -3.664137 3.470846 0.646360 -0.078590 0.050650 0.043070 -8.043986 24.298212 14.428328 20.858182 6.127292 -19.558386 -148.045564 76.752793 -161.703160 1.728052 -2.191524 -0.268890 0.315340 0.475360 0.117140 
-0.482170 16.602330 -1.374100 -11.036394 26.854182 -20.115656 -15.096023 12.223717 2.902915 17.578564 6.347715 -37.171757 18.806356 5.647935 52.601473 0.488418 9.377472 1.047883 -0.182310 -0.409870 -0.255710 18.368417 -12.126251 2.364404 -18.046526 4.039157 11.732613 12.354971 -12.958671 33.958407 -1.224734 -8.073091 1.391489 -0.295730 0.402190 0.289110 -4.682857 2.575668 -8.095718 -8.599089 9.663272 35.301411 -21.311446 15.835413 13.983723 6.826138 -7.454144 -16.966278 -15.815632 8.124158 49.644911 12.599450 -6.126520 -11.340650 -8.678982 -8.014302 3.717328 -51.930253 -6.117355 -14.509849 -114.737117 -63.245158 65.964785 -3.618561 3.376257 0.717670 -0.131920 0.157580 0.014350 -4.598032 22.863833 15.038949 30.395703 2.557875 -19.965817 164.981371 67.959964 134.203835 1.930473 -1.315504 -0.223790 0.276770 0.425350 0.078440 
-0.445360 16.556850 -1.344820 -10.017416 28.601134 -21.592630 -15.117556 12.295743 2.716669 16.348068 5.263696 -35.501438 19.362659 4.790836 53.786729 0.528072 9.379505 1.089110 -0.147030 -0.323570 -0.211540 18.316605 -12.265457 2.428576 -18.430330 3.673721 13.920356 12.574616 -13.751087 34.979198 -1.370958 -8.363081 1.341220 -0.269010 0.366710 0.257810 -4.718355 2.781511 -8.013217 -8.870351 10.958153 36.883256 -18.299633 16.894406 14.677063 5.157216 -4.968072 -15.469730 -9.825057 4.705336 51.826334 12.533650 -5.576410 -13.455990 -10.213419 -7.438591 3.672783 -49.679439 -4.143595 -14.469424 -126.880846 -60.771148 76.553909 -3.529217 3.358518 0.753840 -0.146900 0.217870 0.036960 -0.121981 20.538900 14.496134 35.009862 2.431136 -18.110458 160.469362 62.433298 121.026683 2.194538 -1.171266 -0.227580 0.321220 0.364530 0.066100 
-0.414210 16.489150 -1.321600 -8.620700 28.772369 -22.312791 -15.180212 12.543546 2.663638 15.551254 4.357306 -33.985321 19.600586 4.430450 55.450496 0.537840 9.643639 1.035221 -0.210040 -0.400280 -0.253380 18.222123 -12.258476 2.342584 -19.101227 3.637842 14.407059 11.144627 -14.053702 37.606829 -1.380591 -8.564256 1.296227 -0.281660 0.427700 0.208530 -4.487781 2.285135 -7.865281 -10.146407 12.234480 36.604349 -14.108372 17.440106 14.766138 2.952026 -4.222539 -14.156742 -8.480467 3.526752 52.391635 15.312540 -6.469510 -12.850050 -9.976929 -5.117055 3.652558 -49.300684 -2.260159 -13.269563 -136.323179 -58.363880 85.768555 -3.512556 3.373981 0.784910 -0.125410 0.172110 0.027760 3.768929 17.474562 13.265942 36.558194 1.129017 -15.679412 160.528794 57.972822 117.223433 2.312895 -1.174807 -0.310490 0.379960 0.405160 0.045730 
-0.383830 16.427900 -1.341350 -7.180523 26.730691 -24.206332 -15.105085 12.739026 2.481561 15.937437 4.416465 -30.798097 18.922586 4.871044 57.622749 0.579596 10.085036 0.959765 -0.286810 -0.544430 -0.218430 18.229025 -12.535517 2.280965 -20.539653 4.256464 14.774087 8.411674 -13.694495 41.010866 -1.372981 -8.748733 1.250135 -0.324000 0.493300 0.147620 -4.580731 2.490635 -7.781575 -9.375297 12.582489 38.383685 -12.984547 17.623640 13.802668 1.837006 -3.740385 -13.489207 -7.114074 3.158439 51.693343 16.122100 -5.929130 -11.912990 -11.318136 -3.862959 3.737475 -46.747212 1.147077 -12.314374 -152.657054 -54.367056 104.220408 -3.512127 3.325738 0.842570 -0.106490 0.119040 -0.001430 7.131139 15.848114 12.697148 36.889301 -0.504447 -14.263205 164.260661 54.067509 119.572996 2.355809 -1.186550 -0.434710 0.465840 0.438920 -0.009640 
-0.349630 16.352910 -1.345520 -7.180465 26.282781 -26.067688 -15.047861 12.740526 2.500983 16.675127 3.723303 -29.103158 18.464929 4.846021 59.836004 0.673207 10.483227 0.857113 -0.351780 -0.614760 -0.276410 18.260336 -12.702164 2.221195 -20.841459 4.081501 15.649593 6.113365 -13.353877 43.216317 -1.383975 -8.919230 1.207607 -0.354180 0.557360 0.168880 -4.741799 2.709477 -7.832762 -6.779417 11.571189 39.840378 -12.413515 16.650540 12.700269 0.860595 -3.161879 -12.464369 -5.800410 2.413619 51.130163 17.424320 -6.375930 -10.662080 -11.873818 -1.969846 3.532211 -43.246167 3.375529 -10.043905 -166.179089 -50.202569 124.971248 -3.573548 3.376977 0.818410 -0.053520 0.084080 -0.011150 9.501790 12.925684 11.516816 36.221577 -1.648718 -12.159799 166.979715 51.273641 123.340992 2.362285 -1.249198 -0.452420 0.463530 0.485100 0.000770 
-0.296390 16.276180 -1.343120 -7.574531 24.775397 -27.665134 -14.926606 12.619795 2.547213 18.061006 3.029861 -27.622479 17.922862 4.945018 62.398939 0.753444 10.948999 0.724135 -0.428760 -0.671480 -0.360510 18.376766 -12.878394 2.150308 -21.453253 3.819489 16.178190 4.182979 -12.992418 44.598712 -1.379871 -9.017261 1.205138 -0.374240 0.625970 0.171640 -5.046832 3.033578 -7.938178 -2.810719 9.042707 39.097729 -13.310485 14.819191 14.084967 0.590917 -3.458167 -13.025808 -6.521816 2.715545 51.401858 16.897040 -6.515670 -9.365360 -10.508336 -2.050281 4.870435 -42.384019 8.013936 -9.755310 179.540913 -44.541530 151.225483 -3.696355 3.274875 0.807650 0.002080 0.056470 -0.026850 9.122499 12.038166 11.411113 35.466534 -2.257858 -10.174724 169.627869 47.515959 124.945587 2.358069 -1.263029 -0.480130 0.505450 0.554190 0.015440 
-0.245290 16.215700 -1.341690 -8.777153 23.443291 -29.788188 -14.865431 12.576224 2.632442 20.081594 2.351394 -26.331784 17.255540 5.075169 64.423455 0.734964 11.405429 0.590493 -0.469440 -0.785570 -0.308930 18.452030 -12.864277 2.106522 -21.335362 3.244505 17.659212 2.950779 -12.790552 44.996843 -1.403895 -9.055490 1.177626 -0.400490 0.661150 0.181400 -5.176435 2.905859 -8.007841 1.701146 6.684037 37.820789 -13.682305 13.594322 16.402354 0.950275 -3.005366 -13.963573 -6.062036 2.635047 51.835437 16.014170 -5.795290 -8.732330 -10.677401 -4.063309 6.072813 -39.262609 11.010468 -7.615784 171.381945 -36.118874 172.212865 -3.830103 3.062597 0.890120 0.016170 0.047100 -0.064960 8.999492 12.352638 12.203406 34.239283 -5.048717 -9.131612 174.030580 43.199879 129.453849 2.359723 -1.250167 -0.566240 0.557020 0.609830 -0.042350 
-0.205550 16.175170 -1.317650 -9.517625 22.065137 -31.603349 -14.778546 12.490408 2.603026 21.952355 1.866157 -24.211578 16.149620 5.581177 65.936637 0.808381 11.626600 0.532655 -0.448070 -0.717660 -0.315330 18.553512 -12.948610 2.071880 -21.677739 2.721718 19.073229 1.764926 -12.516180 45.230014 -1.443030 -9.106626 1.199622 -0.370000 0.651180 0.155270 -5.385569 3.047183 -8.003093 5.970731 4.981434 36.003484 -13.489691 13.036468 18.978784 1.121191 -2.550470 -14.384842 -5.128797 1.646633 52.773347 15.261290 -5.994340 -8.432060 -8.415110 -3.700692 5.999981 -36.898282 9.213410 -3.740678 164.792348 -29.779488 -158.163398 -3.793810 2.912573 0.873290 0.022940 0.057630 -0.052190 6.920393 10.861207 13.082715 35.637364 -6.846765 -6.087542 -179.892124 37.184873 140.768614 2.377219 -1.279732 -0.554040 0.584550 0.589670 -0.033020 
